<?xml version="1.0" encoding="utf-8"?>
<!-- Generator: Adobe Illustrator 16.0.0, SVG Export Plug-In . SVG Version: 6.00 Build 0)  -->
<!DOCTYPE svg PUBLIC "-//W3C//DTD SVG 1.1//EN" "http://www.w3.org/Graphics/SVG/1.1/DTD/svg11.dtd">
<svg version="1.1" id="Capa_1" xmlns="http://www.w3.org/2000/svg" xmlns:xlink="http://www.w3.org/1999/xlink" x="0px" y="0px"
	 width="234px" height="42px" viewBox="0 0 234 42" enable-background="new 0 0 234 42" xml:space="preserve">
<g>
	<g>
		<defs>
			<path id="SVGID_1_" d="M56.062,26.971c-4.811,7.641-14.721,9.614-22.087,4.801c-3.116-1.974-5.386-5.086-6.52-8.489
				c0.574,4.527,3.116,9.066,7.366,11.604c7.367,4.813,17.276,2.839,21.814-4.801c2.831-3.963,3.403-9.066,1.983-13.592
				C58.905,20.169,58.043,23.859,56.062,26.971"/>
		</defs>
		<clipPath id="SVGID_2_">
			<use xlink:href="#SVGID_1_"  overflow="visible"/>
		</clipPath>
		
			<linearGradient id="SVGID_3_" gradientUnits="userSpaceOnUse" x1="-184.3096" y1="416.5732" x2="-182.9711" y2="416.5732" gradientTransform="matrix(35.0513 56.1321 -50.4359 31.4944 27490.2031 -2784.5)">
			<stop  offset="0" style="stop-color:#F0BF4E"/>
			<stop  offset="1" style="stop-color:#D86945"/>
		</linearGradient>
		<polygon clip-path="url(#SVGID_2_)" fill="url(#SVGID_3_)" points="17.568,23.003 36.596,55.137 69.926,33.189 50.898,1.056 		"/>
	</g>
	<g>
		<defs>
			<path id="SVGID_4_" d="M47.848,31.498c-8.775,1.975-17.276-3.688-18.971-12.18c-0.847-3.675-0.287-7.352,1.422-10.752
				c-2.843,3.675-4.251,8.489-3.117,13.304c1.695,8.777,10.196,14.153,18.971,12.452c4.811-1.123,8.789-4.237,10.771-8.488
				C54.655,28.657,51.539,30.647,47.848,31.498"/>
		</defs>
		<clipPath id="SVGID_5_">
			<use xlink:href="#SVGID_4_"  overflow="visible"/>
		</clipPath>
		
			<linearGradient id="SVGID_6_" gradientUnits="userSpaceOnUse" x1="-185.0068" y1="417.123" x2="-183.5133" y2="417.123" gradientTransform="matrix(47.4691 57.8711 -56.7534 46.5523 32461.1641 -8732.6875)">
			<stop  offset="0" style="stop-color:#F0BF4E"/>
			<stop  offset="1" style="stop-color:#D86945"/>
		</linearGradient>
		<polygon clip-path="url(#SVGID_5_)" fill="url(#SVGID_6_)" points="13.281,19.609 38.467,51.987 69.691,24.979 44.505,-7.399 		
			"/>
	</g>
	<g>
		<defs>
			<path id="SVGID_7_" d="M38.787,26.122c-5.659-3.692-7.368-11.329-3.677-16.994c1.695-2.537,3.964-4.239,6.794-5.088
				c-3.677,0.289-7.081,2.263-9.063,5.665c-3.676,5.65-2.269,13.304,3.677,16.98c3.116,2.261,7.094,2.55,10.482,1.411
				C44.171,28.385,41.342,27.81,38.787,26.122"/>
		</defs>
		<clipPath id="SVGID_8_">
			<use xlink:href="#SVGID_7_"  overflow="visible"/>
		</clipPath>
		
			<linearGradient id="SVGID_9_" gradientUnits="userSpaceOnUse" x1="-188.8389" y1="409.9971" x2="-187.4622" y2="409.9971" gradientTransform="matrix(-42.9108 29.6361 -27.7158 -40.1303 3328.4375 22045.4922)">
			<stop  offset="0" style="stop-color:#E89748"/>
			<stop  offset="1" style="stop-color:#D86945"/>
		</linearGradient>
		<polygon clip-path="url(#SVGID_8_)" fill="url(#SVGID_9_)" points="41.24,-4.755 17.993,12.176 34.925,38.03 58.172,21.097 		"/>
	</g>
	<g>
		<defs>
			<path id="SVGID_10_" d="M35.396,19.895c-1.421-6.803,2.83-13.303,9.623-15.005c2.829-0.561,5.672,0,8.214,1.124
				c-2.83-2.262-6.505-3.112-10.482-2.262c-6.506,1.412-10.758,7.928-9.336,14.716c0.848,3.69,3.103,6.804,6.506,8.503
				C37.651,25.271,35.958,22.719,35.396,19.895"/>
		</defs>
		<clipPath id="SVGID_11_">
			<use xlink:href="#SVGID_10_"  overflow="visible"/>
		</clipPath>
		
			<linearGradient id="SVGID_12_" gradientUnits="userSpaceOnUse" x1="-188.2896" y1="411.1338" x2="-186.7427" y2="411.1338" gradientTransform="matrix(-43.4641 39.1462 -38.9328 -43.2271 7899.1875 25127.3906)">
			<stop  offset="0" style="stop-color:#E89748"/>
			<stop  offset="1" style="stop-color:#D86945"/>
		</linearGradient>
		<polygon clip-path="url(#SVGID_11_)" fill="url(#SVGID_12_)" points="43.721,-8.237 20.643,13.682 41.506,38.111 64.584,16.19 		
			"/>
	</g>
	<g>
		<defs>
			<path id="SVGID_13_" d="M39.921,19.895c-1.408-4.539,1.135-9.339,5.671-10.766c1.982-0.562,3.964-0.274,5.659,0.288
				c-1.982-1.412-4.524-1.7-7.08-0.85c-4.538,1.412-7.081,6.228-5.658,10.752c0.847,2.552,2.542,4.252,4.811,5.376
				C41.903,23.57,40.496,21.87,39.921,19.895"/>
		</defs>
		<clipPath id="SVGID_14_">
			<use xlink:href="#SVGID_13_"  overflow="visible"/>
		</clipPath>
		
			<linearGradient id="SVGID_15_" gradientUnits="userSpaceOnUse" x1="-188.0767" y1="408.3955" x2="-186.5985" y2="408.3955" gradientTransform="matrix(-30.3407 25.3092 -24.8989 -29.8488 4529.0312 16947.4922)">
			<stop  offset="0" style="stop-color:#F0BF4E"/>
			<stop  offset="1" style="stop-color:#D86945"/>
		</linearGradient>
		<polygon clip-path="url(#SVGID_14_)" fill="url(#SVGID_15_)" points="45.441,0.371 29.171,14.683 42.902,32.039 59.171,17.728 		
			"/>
	</g>
	<g>
		<defs>
			<path id="SVGID_16_" d="M41.056,15.082c1.981-4.252,7.367-5.953,11.617-3.691c1.696,1.139,3.116,2.552,3.677,4.253
				c-0.288-2.263-1.981-4.526-4.252-5.938c-4.25-1.989-9.348-0.577-11.603,3.675c-1.422,2.551-1.422,5.088-0.288,7.365
				C39.634,19.045,39.921,16.78,41.056,15.082"/>
		</defs>
		<clipPath id="SVGID_17_">
			<use xlink:href="#SVGID_16_"  overflow="visible"/>
		</clipPath>
		
			<linearGradient id="SVGID_18_" gradientUnits="userSpaceOnUse" x1="-185.6064" y1="407.9922" x2="-184.2363" y2="407.9922" gradientTransform="matrix(-20.4296 30.6533 -28.2921 -18.8559 7812.5312 13376.0156)">
			<stop  offset="0" style="stop-color:#F0BF4E"/>
			<stop  offset="1" style="stop-color:#D86945"/>
		</linearGradient>
		<polygon clip-path="url(#SVGID_17_)" fill="url(#SVGID_18_)" points="44.387,-0.691 33.371,16.738 51.036,29.153 62.052,11.723 		
			"/>
	</g>
	<path fill="#FFFFFF" d="M25.571,26.542c0,2.042-0.414,3.882-1.242,5.521c-0.828,1.64-1.956,2.821-3.382,3.546
		c-0.509,0.269-0.994,0.485-1.452,0.646c-0.459,0.161-1.001,0.289-1.625,0.383c-0.623,0.094-1.375,0.155-2.254,0.182
		c-0.879,0.027-1.981,0.04-3.307,0.04H6.54v-7.335h6.84c1.275,0,2.281-0.222,3.02-0.665c0.739-0.442,1.109-1.27,1.109-2.478
		c0-0.808-0.255-1.632-0.766-2.479c-0.509-0.847-1.287-1.888-2.332-3.123l-1.413-1.693c-1.096-1.317-1.981-2.391-2.658-3.224
		c-0.673-0.832-1.195-1.585-1.565-2.257c-0.37-0.672-0.618-1.323-0.746-1.954c-0.127-0.63-0.191-1.39-0.191-2.277
		c0-0.511,0.025-0.94,0.077-1.29c0.052-0.35,0.153-0.833,0.306-1.451h8.063c-0.077,0.538-0.121,0.894-0.133,1.068
		c-0.014,0.174-0.02,0.396-0.02,0.664c0,0.323,0.026,0.625,0.076,0.908c0.051,0.282,0.16,0.59,0.324,0.926
		c0.167,0.337,0.403,0.719,0.708,1.149c0.307,0.429,0.714,0.968,1.224,1.611l3.401,4.312c0.662,0.86,1.222,1.666,1.681,2.418
		c0.458,0.752,0.84,1.505,1.146,2.257c0.306,0.753,0.529,1.504,0.669,2.257C25.5,24.957,25.571,25.736,25.571,26.542"/>
	<path fill="#FFFFFF" d="M211.354,21.747c0-1.236-0.166-2.371-0.496-3.406c-0.332-1.034-0.797-1.934-1.396-2.7
		c-0.598-0.766-1.299-1.364-2.103-1.793c-0.802-0.43-1.675-0.646-2.616-0.646c-0.943,0-1.815,0.216-2.619,0.646
		c-0.802,0.429-1.496,1.028-2.082,1.793c-0.587,0.766-1.045,1.666-1.375,2.7c-0.332,1.035-0.498,2.169-0.498,3.406
		c0,1.234,0.166,2.371,0.498,3.406c0.33,1.034,0.788,1.934,1.375,2.7c0.586,0.766,1.28,1.363,2.082,1.793
		c0.804,0.431,1.676,0.646,2.619,0.646c0.941,0,1.814-0.215,2.616-0.646c0.804-0.43,1.505-1.027,2.103-1.793
		c0.599-0.767,1.063-1.666,1.396-2.7C211.188,24.117,211.354,22.98,211.354,21.747 M219.608,21.747c0,2.175-0.388,4.211-1.165,6.106
		c-0.777,1.893-1.841,3.553-3.19,4.977c-1.352,1.423-2.924,2.546-4.72,3.364c-1.797,0.82-3.727,1.23-5.79,1.23
		c-2.039,0-3.963-0.41-5.772-1.23c-1.809-0.818-3.381-1.941-4.719-3.364c-1.336-1.424-2.395-3.084-3.173-4.977
		c-0.776-1.895-1.164-3.931-1.164-6.106c0-2.177,0.388-4.212,1.164-6.105c0.778-1.893,1.837-3.554,3.173-4.978
		c1.338-1.424,2.91-2.545,4.719-3.365c1.81-0.819,3.733-1.229,5.772-1.229c2.063,0,3.993,0.41,5.79,1.229
		c1.796,0.82,3.368,1.941,4.72,3.365c1.35,1.424,2.413,3.084,3.19,4.978S219.608,19.57,219.608,21.747z M188.921,15.097
		c0,3.815-1.872,6.22-5.617,7.213c0.687,0.136,1.307,0.309,1.853,0.523c0.548,0.216,1.007,0.559,1.377,1.028
		c0.37,0.472,0.655,1.096,0.858,1.875c0.204,0.777,0.308,1.8,0.308,3.062v8.06h-7.912v-7.052c-0.025-0.941-0.122-1.7-0.286-2.278
		c-0.166-0.577-0.421-1.021-0.765-1.329c-0.344-0.31-0.784-0.517-1.319-0.626c-0.534-0.105-1.172-0.16-1.909-0.16h-7.033v-7.334
		h9.362c0.894,0,1.588-0.141,2.086-0.424c0.495-0.281,0.744-0.826,0.744-1.631c0-0.806-0.262-1.351-0.785-1.634
		c-0.522-0.281-1.203-0.422-2.045-0.422h-9.438V6.633h10.052c1.02,0,1.834,0.007,2.445,0.021c0.61,0.012,1.134,0.047,1.567,0.101
		c0.433,0.053,0.822,0.14,1.165,0.261c0.345,0.121,0.771,0.29,1.281,0.504C187.583,8.703,188.921,11.228,188.921,15.097z
		 M166.756,16.104c0,2.095-0.428,3.896-1.281,5.4c-0.853,1.504-2.044,2.552-3.572,3.144c-0.46,0.16-0.854,0.295-1.186,0.401
		c-0.33,0.108-0.687,0.189-1.069,0.243c-0.382,0.053-0.828,0.088-1.337,0.101c-0.511,0.014-1.159,0.02-1.95,0.02h-1.91v11.445
		h-7.911V18.079h9.096c0.841,0,1.528-0.135,2.062-0.403c0.537-0.27,0.804-0.819,0.804-1.652c0-0.78-0.254-1.317-0.764-1.613
		c-0.51-0.295-1.212-0.443-2.103-0.443h-9.096V6.633h10.167c0.915,0,1.674,0.014,2.273,0.04c0.599,0.028,1.119,0.082,1.565,0.162
		s0.849,0.195,1.204,0.342c0.357,0.149,0.753,0.344,1.186,0.584c0.559,0.323,1.075,0.766,1.548,1.331
		c0.471,0.564,0.878,1.209,1.223,1.935c0.344,0.726,0.606,1.525,0.783,2.398C166.666,14.296,166.756,15.19,166.756,16.104z
		 M145.048,15.097c0,3.815-1.871,6.22-5.617,7.213c0.688,0.136,1.306,0.309,1.854,0.523c0.548,0.216,1.007,0.559,1.376,1.028
		c0.37,0.472,0.656,1.096,0.86,1.875c0.203,0.777,0.304,1.8,0.304,3.062v8.06h-7.908v-7.052c-0.026-0.941-0.122-1.7-0.287-2.278
		c-0.165-0.577-0.421-1.021-0.764-1.329c-0.345-0.31-0.784-0.517-1.319-0.626c-0.536-0.105-1.172-0.16-1.911-0.16h-7.032v-7.334
		h9.363c0.891,0,1.587-0.141,2.083-0.424c0.496-0.281,0.746-0.826,0.746-1.631c0-0.806-0.261-1.351-0.783-1.634
		c-0.524-0.281-1.205-0.422-2.046-0.422h-9.439V6.633h10.052c1.018,0,1.834,0.007,2.445,0.021c0.61,0.012,1.133,0.047,1.567,0.101
		c0.431,0.053,0.821,0.14,1.165,0.261s0.771,0.29,1.281,0.504C143.711,8.703,145.048,11.228,145.048,15.097z M103.354,36.858V18.079
		h19.109v7.334h-11.198v4.11h11.198v7.335H103.354z M103.354,13.968V6.633h19.109v7.334H103.354z M99.266,36.858
		c-1.248,0-2.311-0.032-3.19-0.101c-0.88-0.067-1.765-0.168-2.656-0.301c-1.656-0.27-3.167-0.834-4.528-1.694
		c-1.364-0.859-2.536-1.94-3.517-3.243c-0.98-1.303-1.746-2.788-2.292-4.453c-0.548-1.667-0.822-3.439-0.822-5.32
		c0-1.263,0.14-2.506,0.421-3.729c0.278-1.222,0.675-2.377,1.185-3.466c0.509-1.088,1.126-2.088,1.853-3.002
		c0.726-0.914,1.535-1.692,2.426-2.338c0.688-0.483,1.388-0.893,2.102-1.229c0.714-0.335,1.517-0.604,2.408-0.807
		c0.891-0.2,1.897-0.342,3.019-0.422c1.122-0.082,2.434-0.122,3.936-0.122h1.911v7.334h-0.839c-1.604,0-3.039,0.128-4.299,0.382
		c-1.262,0.256-2.326,0.686-3.191,1.291c-0.866,0.604-1.523,1.403-1.969,2.397s-0.669,2.229-0.669,3.708
		c0,1.503,0.288,2.834,0.86,3.99c0.574,1.155,1.37,2.027,2.388,2.618c0.383,0.216,0.791,0.398,1.224,0.546
		c0.433,0.147,0.923,0.269,1.472,0.362c0.547,0.095,1.159,0.16,1.833,0.2c0.675,0.041,1.459,0.061,2.351,0.061h0.839v7.335H99.266z
		 M78.744,36.858c-1.249,0-2.311-0.032-3.191-0.101c-0.877-0.067-1.764-0.168-2.656-0.301c-1.655-0.27-3.165-0.834-4.527-1.694
		c-1.364-0.859-2.535-1.94-3.516-3.243s-1.745-2.788-2.293-4.453c-0.547-1.667-0.821-3.439-0.821-5.32
		c0-1.263,0.139-2.506,0.419-3.729c0.281-1.222,0.675-2.377,1.185-3.466c0.509-1.088,1.127-2.088,1.854-3.002
		c0.726-0.914,1.535-1.692,2.427-2.338c0.688-0.483,1.389-0.893,2.101-1.229c0.714-0.335,1.517-0.604,2.408-0.807
		c0.892-0.2,1.898-0.342,3.02-0.422c1.121-0.082,2.433-0.122,3.937-0.122H81v7.334h-0.84c-1.606,0-3.039,0.128-4.301,0.382
		c-1.26,0.256-2.324,0.686-3.19,1.291c-0.866,0.604-1.523,1.403-1.968,2.397c-0.447,0.995-0.67,2.229-0.67,3.708
		c0,1.503,0.288,2.834,0.859,3.99c0.575,1.155,1.37,2.027,2.389,2.618c0.383,0.216,0.79,0.398,1.223,0.546
		c0.433,0.147,0.924,0.269,1.471,0.362c0.549,0.095,1.159,0.16,1.835,0.2c0.674,0.041,1.458,0.061,2.351,0.061H81v7.335H78.744z"/>
</g>
<ellipse fill="none" stroke="#FFFFFF" stroke-width="0.1459" stroke-miterlimit="2.6131" cx="227.948" cy="10.556" rx="5.312" ry="5.602"/>
<text transform="matrix(0.9483 0 0 1 225.6895 12.96)" fill="#FFFFFF" font-family="'ArialMT'" font-size="6.7135">R</text>
</svg>
