<?xml version="1.0" encoding="utf-8"?>
<!-- Generator: Adobe Illustrator 16.0.0, SVG Export Plug-In . SVG Version: 6.00 Build 0)  -->
<!DOCTYPE svg PUBLIC "-//W3C//DTD SVG 1.1//EN" "http://www.w3.org/Graphics/SVG/1.1/DTD/svg11.dtd">
<svg version="1.1" id="Capa_1" xmlns="http://www.w3.org/2000/svg" xmlns:xlink="http://www.w3.org/1999/xlink" x="0px" y="0px"
	 width="154px" height="30px" viewBox="0 0 154 30" enable-background="new 0 0 154 30" xml:space="preserve">
<path fill="#373C40" d="M66.691,7.605c-0.895,0.397-1.859,0.666-2.871,0.787c1.033-0.618,1.825-1.599,2.198-2.766
	c-0.966,0.573-2.036,0.988-3.174,1.214c-0.912-0.972-2.211-1.579-3.648-1.579c-2.761,0-4.999,2.237-4.999,4.999
	c0,0.391,0.044,0.772,0.129,1.139C50.172,11.19,46.488,9.2,44.022,6.176c-0.43,0.738-0.676,1.598-0.676,2.514
	c0,1.734,0.882,3.265,2.223,4.161c-0.818-0.026-1.59-0.252-2.264-0.626c0,0.021,0,0.042,0,0.063c0,2.422,1.723,4.441,4.01,4.901
	c-0.419,0.113-0.861,0.175-1.317,0.175c-0.322,0-0.636-0.03-0.94-0.09c0.636,1.986,2.482,3.432,4.669,3.472
	c-1.71,1.341-3.865,2.141-6.208,2.141c-0.403,0-0.801-0.024-1.192-0.07c2.213,1.418,4.84,2.246,7.663,2.246
	c9.195,0,14.223-7.617,14.223-14.223c0-0.217-0.004-0.434-0.014-0.648C65.175,9.488,66.022,8.607,66.691,7.605z"/>
<path fill="#373C40" d="M20.782,11.317h-3.454V9.052c0-0.852,0.563-1.049,0.96-1.049c0.396,0,2.438,0,2.438,0v-3.74L17.37,4.25
	c-3.726,0-4.574,2.789-4.574,4.574v2.492h-2.155v3.853h2.155c0,4.945,0,10.904,0,10.904h4.532c0,0,0-6.018,0-10.904h3.058
	L20.782,11.317z"/>
<g>
	<path fill="#373C40" d="M106.787,13.271h-3.38V9.892c0-0.257-0.208-0.467-0.466-0.467h-0.962c-0.26,0-0.468,0.21-0.468,0.467v3.379
		h-3.379c-0.259,0-0.469,0.21-0.469,0.469v0.962c0,0.258,0.21,0.468,0.469,0.468h3.379v3.38c0,0.259,0.208,0.468,0.468,0.468h0.962
		c0.258,0,0.466-0.209,0.466-0.468v-3.381h3.38c0.258,0,0.468-0.209,0.468-0.467v-0.963
		C107.255,13.48,107.045,13.271,106.787,13.271z"/>
	<path fill="#373C40" d="M95.432,16.233c-0.711-0.503-1.357-1.241-1.368-1.469c0-0.412,0.037-0.609,0.963-1.332
		c1.198-0.938,1.857-2.169,1.857-3.473c0-1.181-0.361-2.229-0.976-2.967h0.478c0.099,0,0.194-0.03,0.273-0.088l1.33-0.963
		c0.165-0.118,0.233-0.33,0.17-0.522c-0.062-0.192-0.241-0.324-0.444-0.324H91.77c-0.65,0-1.311,0.115-1.959,0.338
		c-2.167,0.747-3.683,2.594-3.683,4.489c0,2.685,2.081,4.721,4.86,4.784c-0.054,0.213-0.081,0.423-0.081,0.628
		c0,0.414,0.104,0.807,0.32,1.185c-0.024,0-0.049,0-0.076,0c-2.65,0-5.043,1.301-5.951,3.235c-0.237,0.504-0.356,1.013-0.356,1.516
		c0,0.488,0.125,0.958,0.371,1.4c0.57,1.021,1.797,1.813,3.454,2.231c0.854,0.216,1.773,0.326,2.728,0.326
		c0.857,0,1.675-0.11,2.432-0.329c2.355-0.685,3.879-2.42,3.879-4.421C97.707,18.557,97.089,17.405,95.432,16.233z M87.923,20.632
		c0-1.397,1.776-2.623,3.8-2.623h0.055c0.439,0.005,0.869,0.069,1.273,0.194c0.141,0.095,0.274,0.187,0.402,0.274
		c0.938,0.639,1.557,1.06,1.729,1.737c0.042,0.17,0.062,0.341,0.062,0.506c0,1.74-1.298,2.622-3.858,2.622
		C89.443,23.343,87.923,22.152,87.923,20.632z M89.765,7.425c0.316-0.36,0.73-0.553,1.195-0.553l0.053,0.001
		c1.313,0.04,2.571,1.504,2.803,3.266c0.13,0.985-0.09,1.913-0.585,2.478c-0.317,0.362-0.727,0.553-1.21,0.553c0,0,0,0-0.001,0
		h-0.021c-1.286-0.039-2.57-1.56-2.801-3.318C89.067,8.867,89.275,7.983,89.765,7.425z"/>
</g>
<g>
	<path fill="#373C40" d="M145.093,20.703l-5.392-5.847l5.396-5.406c0.111-0.111,0.303-0.033,0.303,0.125v11.007
		C145.4,20.744,145.202,20.822,145.093,20.703z M136.857,17.705c-0.31,0.309-0.729,0.484-1.168,0.484h-0.014
		c-0.446,0-0.874-0.178-1.189-0.492l-1.599-1.596l-5.484,5.582c-0.11,0.113-0.03,0.303,0.127,0.303h16.654
		c0.154,0,0.234-0.184,0.13-0.297l-5.49-5.955L136.857,17.705z M135.676,16.949L135.676,16.949c0.118,0,0.229-0.047,0.313-0.131
		l8.164-8.178c0.111-0.111,0.032-0.302-0.126-0.302h-16.731c-0.158,0-0.237,0.19-0.125,0.302l8.192,8.178
		C135.446,16.902,135.558,16.949,135.676,16.949z M126.249,9.9v10.756c0,0.158,0.192,0.238,0.304,0.125l5.458-5.557l-5.459-5.45
		C126.439,9.664,126.249,9.743,126.249,9.9z"/>
</g>
</svg>
