<?xml version="1.0" encoding="utf-8"?>
<!-- Generator: Adobe Illustrator 16.0.0, SVG Export Plug-In . SVG Version: 6.00 Build 0)  -->
<!DOCTYPE svg PUBLIC "-//W3C//DTD SVG 1.1//EN" "http://www.w3.org/Graphics/SVG/1.1/DTD/svg11.dtd">
<svg version="1.1" id="Capa_1" xmlns="http://www.w3.org/2000/svg" xmlns:xlink="http://www.w3.org/1999/xlink" x="0px" y="0px"
	 width="108px" height="30px" viewBox="0 0 108 30" enable-background="new 0 0 108 30" xml:space="preserve">
<g>
	<path fill="#E6E6E6" d="M22.308,6.083c2.353,2.352,3.528,5.184,3.528,8.473c0,3.312-1.176,6.145-3.528,8.497
		c-2.328,2.328-5.16,3.504-8.473,3.504c-3.312,0-6.145-1.176-8.497-3.504C3.01,20.7,1.834,17.867,1.834,14.556
		c0-3.312,1.176-6.145,3.504-8.473c2.352-2.353,5.185-3.528,8.497-3.528C17.124,2.555,19.956,3.73,22.308,6.083z M14.843,12.587
		v-2.16c0-0.936,0.192-1.368,1.224-1.368h1.632l0.144-2.832c-0.552-0.12-1.32-0.168-2.28-0.168c-2.784,0-4.224,1.632-4.224,3.768
		v2.736H9.323v3h2.016v7.489h3.504v-7.489h2.808l0.192-2.976H14.843z"/>
</g>
<g>
	<path fill="#E6E6E6" d="M39.977,2.555c3.312,0,6.145,1.176,8.473,3.528c2.353,2.328,3.528,5.16,3.528,8.473
		c0,3.312-1.176,6.145-3.528,8.497c-2.328,2.328-5.16,3.504-8.473,3.504c-3.312,0-6.145-1.176-8.497-3.504
		c-2.328-2.353-3.504-5.186-3.504-8.497c0-3.312,1.176-6.145,3.504-8.473C33.832,3.73,36.665,2.555,39.977,2.555z M47.273,11.916
		c0.624-0.432,1.2-1.008,1.704-1.752c-0.672,0.264-1.32,0.456-1.968,0.528c0.72-0.408,1.2-1.032,1.464-1.896
		c-0.696,0.408-1.392,0.672-2.136,0.84c-0.672-0.72-1.488-1.08-2.473-1.08c-0.936,0-1.752,0.336-2.4,1.008
		c-0.648,0.648-0.984,1.464-0.984,2.4c0,0.288,0.024,0.552,0.072,0.792c-2.856-0.144-5.208-1.344-7.057-3.6
		c-0.288,0.552-0.432,1.128-0.432,1.728c0,1.224,0.504,2.184,1.488,2.832c-0.504,0-1.008-0.144-1.512-0.408v0.024
		c0,1.632,1.152,3.048,2.712,3.36c-0.24,0.072-0.528,0.121-0.888,0.121c-0.168,0-0.384-0.025-0.648-0.072
		c0.408,1.367,1.704,2.256,3.168,2.328c-1.32,1.031-2.712,1.536-4.224,1.536c-0.192,0-0.456-0.024-0.792-0.049
		c1.536,1.009,3.264,1.513,5.208,1.513c3,0,5.664-1.272,7.225-3.168c1.56-1.896,2.472-4.249,2.472-6.529V11.916z"/>
</g>
<g>
	<path fill="#E6E6E6" d="M56.443,20.798c-1.32-2.017-1.968-4.225-1.968-6.601c0-0.264,0-0.48,0.024-0.648
		c0.601,2.088,2.521,3.503,4.993,3.503h0.623c-0.216,0.457-0.336,0.865-0.336,1.272c0,0.624,0.312,1.248,0.912,1.896h-1.152
		C58.459,20.222,57.428,20.414,56.443,20.798z M74.949,5.725c2.352,2.328,3.527,5.16,3.527,8.473s-1.176,6.145-3.527,8.497
		c-2.328,2.328-5.16,3.504-8.473,3.504h-0.48c0.359-0.672,0.527-1.32,0.527-1.968c0-2.017-0.647-3.169-2.399-4.417
		c-0.408-0.312-0.816-0.672-1.2-1.08c-0.384-0.432-0.576-0.792-0.576-1.056c0-0.744,0.217-1.104,1.297-1.944
		c1.271-1.008,1.92-2.208,1.92-3.601c0-1.8-0.793-3.432-2.209-3.936h2.185l1.513-1.104h-6.817c-1.8,0-3.336,0.648-4.584,1.944
		c0.983-2.064,2.424-3.72,4.368-4.968s4.104-1.872,6.457-1.872C69.789,2.196,72.621,3.372,74.949,5.725z M58.075,15.085
		c-0.743-0.84-1.176-1.848-1.319-3c-0.145-1.152,0.023-2.112,0.527-2.904s1.2-1.152,2.088-1.128c0.889,0.048,1.681,0.48,2.425,1.296
		c0.744,0.792,1.176,1.776,1.319,2.928c0.145,1.152-0.047,2.136-0.575,2.953c-0.505,0.792-1.2,1.176-2.064,1.128
		C59.611,16.334,58.819,15.925,58.075,15.085z M64.46,26.03c-3.001-0.504-5.473-1.944-7.368-4.32
		c0.983-0.576,2.039-0.864,3.168-0.84c0.527,0,1.08,0.096,1.68,0.264c0.217,0.168,0.937,0.648,1.129,0.769
		c0.215,0.119,0.695,0.504,0.863,0.695c0.312,0.312,0.6,0.744,0.744,1.2c0.049,0.216,0.072,0.456,0.072,0.696
		C64.748,25.094,64.652,25.599,64.46,26.03z M72.477,11.197h3V9.709h-3v-3h-1.512v3h-3v1.488h3v3h1.512V11.197z"/>
</g>
<g>
	<path fill="#E6E6E6" d="M93.512,2.554c3.312,0,6.145,1.176,8.473,3.528c2.354,2.328,3.529,5.16,3.529,8.473
		c0,3.312-1.176,6.144-3.529,8.498c-2.328,2.328-5.16,3.504-8.473,3.504c-3.312,0-6.145-1.176-8.496-3.504
		c-2.328-2.354-3.504-5.186-3.504-8.498c0-3.312,1.176-6.145,3.504-8.473C87.367,3.73,90.2,2.554,93.512,2.554z M93.512,20.051
		c3.745,0,5.93-0.238,6.553-0.695c0.625-0.455,0.937-2.064,0.937-4.8c0-2.736-0.312-4.344-0.937-4.8
		c-0.623-0.456-2.808-0.696-6.553-0.696c-3.744,0-5.928,0.24-6.576,0.696C86.312,10.211,86,11.819,86,14.555
		c0,2.736,0.312,4.345,0.959,4.8C87.584,19.812,89.768,20.051,93.512,20.051z M91.52,17.555v-6l4.993,3L91.52,17.555z"/>
</g>
</svg>
