<?xml version="1.0" encoding="utf-8"?>
<!-- Generator: Adobe Illustrator 16.0.0, SVG Export Plug-In . SVG Version: 6.00 Build 0)  -->
<!DOCTYPE svg PUBLIC "-//W3C//DTD SVG 1.1//EN" "http://www.w3.org/Graphics/SVG/1.1/DTD/svg11.dtd">
<svg version="1.1" id="Capa_1" xmlns="http://www.w3.org/2000/svg" xmlns:xlink="http://www.w3.org/1999/xlink" x="0px" y="0px"
	 width="186.688px" height="54px" viewBox="0 0 186.688 54" enable-background="new 0 0 186.688 54" xml:space="preserve">
<polygon points="23.491,4.483 0,27.973 23.378,51.352 46.672,28.057 "/>
<polygon points="70.163,4.483 46.672,27.973 70.05,51.352 93.344,28.057 "/>
<polygon points="116.834,4.483 93.344,27.973 116.723,51.352 140.016,28.057 "/>
<polygon points="163.506,4.483 140.016,27.973 163.395,51.352 186.688,28.057 "/>
<path fill="#FFFFFF" d="M80.66,22.822c-0.767,0.341-1.592,0.571-2.458,0.674c0.884-0.529,1.562-1.369,1.882-2.369
	c-0.827,0.491-1.743,0.847-2.719,1.04c-0.781-0.832-1.894-1.352-3.125-1.352c-2.364,0-4.281,1.917-4.281,4.282
	c0,0.335,0.038,0.661,0.111,0.975c-3.558-0.179-6.713-1.883-8.825-4.474c-0.369,0.632-0.579,1.368-0.579,2.152
	c0,1.486,0.755,2.797,1.904,3.564c-0.701-0.022-1.362-0.215-1.939-0.536c0,0.018,0,0.036,0,0.055c0,2.075,1.476,3.804,3.435,4.199
	c-0.359,0.097-0.737,0.149-1.128,0.149c-0.276,0-0.544-0.027-0.806-0.077c0.545,1.7,2.126,2.939,4,2.973
	c-1.465,1.149-3.311,1.834-5.318,1.834c-0.345,0-0.686-0.021-1.021-0.061c1.895,1.216,4.146,1.924,6.563,1.924
	c7.875,0,12.181-6.524,12.181-12.182c0-0.186-0.003-0.371-0.012-0.555C79.36,24.435,80.086,23.68,80.66,22.822z"/>
<g>
	<path fill="#FFFFFF" d="M128.029,27.276h-3.257V24.02c0-0.248-0.202-0.45-0.45-0.45h-0.927c-0.25,0-0.452,0.202-0.452,0.45v3.256
		h-3.256c-0.248,0-0.451,0.202-0.451,0.451v0.927c0,0.249,0.203,0.45,0.451,0.45h3.256v3.258c0,0.249,0.202,0.45,0.452,0.45h0.927
		c0.248,0,0.45-0.201,0.45-0.45v-3.258h3.257c0.248,0,0.45-0.201,0.45-0.45v-0.927C128.479,27.478,128.277,27.276,128.029,27.276z"
		/>
	<path fill="#FFFFFF" d="M117.084,30.131c-0.685-0.485-1.308-1.196-1.318-1.415c0-0.397,0.036-0.589,0.928-1.284
		c1.155-0.903,1.79-2.091,1.79-3.346c0-1.138-0.347-2.149-0.939-2.859h0.459c0.095,0,0.188-0.029,0.264-0.085l1.281-0.928
		c0.159-0.114,0.226-0.317,0.165-0.503s-0.233-0.312-0.429-0.312h-5.729c-0.626,0-1.264,0.11-1.889,0.326
		c-2.088,0.72-3.548,2.499-3.548,4.325c0,2.588,2.005,4.55,4.685,4.611c-0.052,0.205-0.079,0.407-0.079,0.604
		c0,0.399,0.102,0.777,0.309,1.142c-0.024,0-0.047,0-0.074,0c-2.554,0-4.86,1.254-5.735,3.119c-0.228,0.484-0.344,0.976-0.344,1.459
		c0,0.472,0.121,0.925,0.358,1.351c0.549,0.984,1.731,1.747,3.328,2.15c0.824,0.208,1.71,0.314,2.629,0.314
		c0.827,0,1.614-0.107,2.343-0.317c2.271-0.659,3.739-2.332,3.739-4.261C119.277,32.37,118.682,31.261,117.084,30.131z
		 M109.848,34.37c0-1.347,1.711-2.529,3.662-2.529h0.052c0.424,0.006,0.838,0.068,1.229,0.188c0.134,0.092,0.263,0.18,0.387,0.265
		c0.903,0.615,1.5,1.021,1.667,1.674c0.039,0.163,0.059,0.328,0.059,0.487c0,1.678-1.251,2.528-3.719,2.528
		C111.313,36.983,109.848,35.836,109.848,34.37z M111.623,21.642c0.305-0.348,0.704-0.532,1.152-0.532l0.051,0
		c1.267,0.038,2.478,1.449,2.701,3.146c0.125,0.951-0.086,1.844-0.564,2.389c-0.305,0.349-0.699,0.533-1.166,0.533c0,0,0,0-0.001,0
		h-0.02c-1.241-0.039-2.479-1.503-2.7-3.199C110.952,23.032,111.151,22.181,111.623,21.642z"/>
</g>
<path fill="#FFFFFF" d="M27.653,24.917h-2.94v-1.928c0-0.725,0.48-0.894,0.818-0.894c0.337,0,2.075,0,2.075,0v-3.184l-2.857-0.011
	c-3.172,0-3.894,2.374-3.894,3.894v2.122H19.02v3.28h1.834c0,4.21,0,9.282,0,9.282h3.858c0,0,0-5.122,0-9.282h2.604L27.653,24.917z"
	/>
<g>
	<path fill="#FFFFFF" d="M169.889,27.439h-13.074c-2.078,0-3.762,1.687-3.762,3.764v3.024c0,2.078,1.684,3.764,3.762,3.764h13.074
		c2.077,0,3.762-1.686,3.762-3.764v-3.024C173.65,29.126,171.966,27.439,169.889,27.439z M159.562,29.794h-1.216v6.039h-1.174
		v-6.039h-1.215v-1.027h3.604V29.794L159.562,29.794z M162.994,35.833h-1.041v-0.571c-0.193,0.212-0.393,0.373-0.602,0.482
		c-0.208,0.112-0.409,0.166-0.605,0.166c-0.241,0-0.421-0.077-0.544-0.233c-0.121-0.156-0.183-0.387-0.183-0.699V30.62h1.041v3.999
		c0,0.124,0.023,0.212,0.064,0.268c0.045,0.057,0.117,0.083,0.215,0.083c0.076,0,0.173-0.037,0.29-0.11
		c0.118-0.073,0.226-0.166,0.323-0.28v-3.96h1.041V35.833z M166.776,34.757c0,0.368-0.082,0.651-0.245,0.849
		c-0.162,0.197-0.4,0.295-0.708,0.295c-0.205,0-0.388-0.037-0.546-0.113s-0.309-0.192-0.445-0.354v0.399h-1.055v-7.066h1.055v2.276
		c0.141-0.158,0.29-0.28,0.445-0.361c0.16-0.084,0.32-0.125,0.482-0.125c0.329,0,0.58,0.11,0.754,0.333
		c0.175,0.222,0.262,0.548,0.262,0.975L166.776,34.757L166.776,34.757z M170.39,33.353h-1.993v0.981
		c0,0.274,0.033,0.465,0.102,0.571c0.07,0.106,0.187,0.159,0.354,0.159c0.173,0,0.293-0.046,0.362-0.136
		c0.067-0.09,0.103-0.287,0.103-0.595v-0.236h1.073v0.268c0,0.534-0.13,0.937-0.394,1.208c-0.26,0.27-0.649,0.403-1.169,0.403
		c-0.467,0-0.835-0.143-1.103-0.429c-0.268-0.285-0.403-0.681-0.403-1.183v-2.342c0-0.451,0.149-0.821,0.444-1.105
		s0.674-0.427,1.141-0.427c0.477,0,0.844,0.132,1.1,0.396s0.384,0.642,0.384,1.136V33.353z"/>
	<path fill="#FFFFFF" d="M168.861,31.402c-0.166,0-0.285,0.047-0.357,0.145c-0.073,0.092-0.107,0.248-0.107,0.467v0.527h0.92v-0.527
		c0-0.219-0.036-0.376-0.109-0.467C169.137,31.449,169.02,31.402,168.861,31.402z"/>
	<path fill="#FFFFFF" d="M165.268,31.385c-0.074,0-0.148,0.017-0.221,0.051c-0.072,0.033-0.145,0.088-0.215,0.159v3.248
		c0.084,0.084,0.166,0.148,0.247,0.186c0.081,0.036,0.163,0.056,0.252,0.056c0.128,0,0.222-0.037,0.282-0.111
		c0.059-0.074,0.089-0.192,0.089-0.359v-2.692c0-0.177-0.035-0.31-0.109-0.4C165.516,31.431,165.408,31.385,165.268,31.385z"/>
	<polygon fill="#FFFFFF" points="158.527,25.629 159.848,25.629 159.848,22.399 161.385,17.844 160.042,17.844 159.225,20.955 
		159.143,20.955 158.283,17.844 156.953,17.844 158.527,22.545 	"/>
	<path fill="#FFFFFF" d="M163.174,25.773c0.533,0,0.951-0.14,1.256-0.419c0.304-0.281,0.455-0.665,0.455-1.156v-2.967
		c0-0.437-0.155-0.797-0.463-1.074c-0.312-0.277-0.71-0.417-1.195-0.417c-0.533,0-0.957,0.133-1.273,0.396
		c-0.314,0.264-0.474,0.616-0.474,1.063v2.977c0,0.488,0.153,0.875,0.462,1.164S162.66,25.773,163.174,25.773z M162.688,21.155
		c0-0.125,0.045-0.226,0.133-0.305c0.091-0.077,0.207-0.114,0.35-0.114c0.155,0,0.281,0.037,0.377,0.114
		c0.096,0.079,0.143,0.18,0.143,0.305v3.129c0,0.153-0.047,0.275-0.141,0.363s-0.221,0.131-0.379,0.131
		c-0.154,0-0.273-0.041-0.357-0.13c-0.084-0.086-0.125-0.207-0.125-0.364V21.155L162.688,21.155z"/>
	<path fill="#FFFFFF" d="M166.656,25.713c0.221,0,0.446-0.063,0.68-0.184c0.235-0.123,0.461-0.303,0.676-0.536v0.636h1.173v-5.743
		h-1.173v4.359c-0.109,0.125-0.23,0.228-0.361,0.309c-0.133,0.081-0.242,0.121-0.328,0.121c-0.109,0-0.19-0.03-0.238-0.093
		c-0.049-0.06-0.075-0.158-0.075-0.293v-4.403h-1.171v4.8c0,0.343,0.068,0.599,0.204,0.769
		C166.181,25.626,166.383,25.713,166.656,25.713z"/>
</g>
</svg>
