<?xml version="1.0" encoding="utf-8"?>
<!-- Generator: Adobe Illustrator 16.0.0, SVG Export Plug-In . SVG Version: 6.00 Build 0)  -->
<!DOCTYPE svg PUBLIC "-//W3C//DTD SVG 1.1//EN" "http://www.w3.org/Graphics/SVG/1.1/DTD/svg11.dtd">
<svg version="1.1" id="Capa_1" xmlns="http://www.w3.org/2000/svg" xmlns:xlink="http://www.w3.org/1999/xlink" x="0px" y="0px"
	 width="108px" height="30px" viewBox="0 0 108 30" enable-background="new 0 0 108 30" xml:space="preserve">
<g>
	<path fill="#E6E6E6" d="M22.205,7.695c2.168,2.167,3.25,4.776,3.25,7.806c0,3.051-1.083,5.661-3.25,7.827
		c-2.145,2.146-4.753,3.229-7.806,3.229c-3.052,0-5.662-1.083-7.828-3.229c-2.145-2.167-3.228-4.777-3.228-7.827
		c0-3.051,1.083-5.662,3.228-7.806c2.167-2.168,4.776-3.25,7.828-3.25C17.429,4.445,20.038,5.527,22.205,7.695z M15.327,13.687
		v-1.99c0-0.862,0.178-1.26,1.128-1.26h1.504l0.132-2.609c-0.508-0.11-1.216-0.154-2.101-0.154c-2.565,0-3.892,1.503-3.892,3.472
		v2.52h-1.857v2.763h1.857v6.899h3.228v-6.899h2.587l0.177-2.741H15.327z"/>
</g>
<g>
	<path fill="#E6E6E6" d="M40.812,4.445c3.051,0,5.661,1.083,7.806,3.25c2.168,2.145,3.25,4.754,3.25,7.806
		c0,3.051-1.083,5.661-3.25,7.827c-2.145,2.146-4.754,3.229-7.806,3.229c-3.051,0-5.662-1.083-7.828-3.229
		c-2.145-2.167-3.228-4.777-3.228-7.827c0-3.051,1.083-5.662,3.228-7.806C35.15,5.527,37.761,4.445,40.812,4.445z M47.533,13.068
		c0.575-0.398,1.106-0.928,1.57-1.614c-0.619,0.243-1.216,0.42-1.813,0.486c0.664-0.376,1.105-0.951,1.349-1.747
		c-0.641,0.376-1.282,0.619-1.968,0.774c-0.619-0.663-1.371-0.995-2.278-0.995c-0.862,0-1.614,0.31-2.211,0.929
		c-0.598,0.597-0.907,1.349-0.907,2.211c0,0.266,0.022,0.509,0.066,0.729c-2.631-0.133-4.798-1.238-6.501-3.316
		c-0.266,0.508-0.398,1.039-0.398,1.591c0,1.128,0.465,2.012,1.371,2.609c-0.464,0-0.928-0.133-1.393-0.376v0.022
		c0,1.502,1.062,2.807,2.499,3.094c-0.221,0.066-0.486,0.111-0.818,0.111c-0.155,0-0.354-0.021-0.597-0.065
		c0.376,1.259,1.57,2.079,2.918,2.145c-1.216,0.95-2.499,1.416-3.891,1.416c-0.178,0-0.42-0.022-0.73-0.046
		c1.415,0.93,3.007,1.394,4.799,1.394c2.763,0,5.217-1.172,6.656-2.919c1.437-1.746,2.277-3.914,2.277-6.014L47.533,13.068
		L47.533,13.068z"/>
</g>
<g>
	<path fill="#E6E6E6" d="M57.982,21.251c-1.217-1.857-1.813-3.892-1.813-6.081c0-0.243,0-0.442,0.021-0.597
		c0.554,1.923,2.322,3.227,4.601,3.227h0.574c-0.2,0.421-0.31,0.797-0.31,1.172c0,0.575,0.286,1.15,0.84,1.748h-1.062
		C59.839,20.722,58.889,20.897,57.982,21.251z M75.031,7.365c2.166,2.145,3.25,4.754,3.25,7.806c0,3.052-1.084,5.661-3.25,7.828
		c-2.145,2.146-4.754,3.229-7.806,3.229h-0.443c0.332-0.619,0.486-1.217,0.486-1.814c0-1.857-0.597-2.918-2.211-4.067
		c-0.376-0.289-0.751-0.619-1.105-0.996c-0.354-0.397-0.53-0.729-0.53-0.973c0-0.687,0.199-1.017,1.194-1.79
		c1.172-0.93,1.769-2.035,1.769-3.319c0-1.658-0.73-3.161-2.035-3.626h2.015l1.394-1.017h-6.281c-1.657,0-3.073,0.597-4.224,1.791
		c0.906-1.901,2.234-3.427,4.025-4.577c1.79-1.149,3.78-1.725,5.949-1.725C70.277,4.113,72.887,5.197,75.031,7.365z M59.485,15.988
		c-0.685-0.774-1.084-1.703-1.216-2.764c-0.133-1.061,0.022-1.946,0.486-2.675S59.86,9.487,60.68,9.51
		c0.818,0.044,1.548,0.442,2.234,1.194c0.685,0.729,1.084,1.636,1.215,2.697c0.134,1.062-0.044,1.968-0.53,2.721
		c-0.465,0.729-1.105,1.083-1.9,1.038C60.9,17.139,60.17,16.762,59.485,15.988z M65.367,26.071
		c-2.765-0.465-5.042-1.791-6.788-3.979c0.906-0.531,1.879-0.797,2.919-0.773c0.485,0,0.995,0.087,1.548,0.242
		c0.2,0.155,0.863,0.598,1.039,0.708c0.199,0.109,0.641,0.466,0.796,0.641c0.287,0.288,0.553,0.686,0.686,1.106
		c0.045,0.198,0.066,0.42,0.066,0.642C65.633,25.209,65.545,25.676,65.367,26.071z M72.753,12.406h2.765v-1.371h-2.765V8.271H71.36
		v2.764h-2.764v1.371h2.764v2.764h1.393V12.406z"/>
</g>
<g>
	<path fill="#E6E6E6" d="M93.638,4.444c3.051,0,5.661,1.083,7.806,3.25c2.169,2.145,3.251,4.754,3.251,7.806
		c0,3.051-1.083,5.66-3.251,7.828c-2.145,2.146-4.754,3.229-7.806,3.229s-5.661-1.083-7.828-3.229
		c-2.145-2.168-3.229-4.777-3.229-7.828c0-3.051,1.084-5.662,3.229-7.806C87.977,5.527,90.586,4.444,93.638,4.444z M93.638,20.563
		c3.45,0,5.462-0.22,6.036-0.641c0.575-0.42,0.864-1.901,0.864-4.422c0-2.521-0.289-4.002-0.864-4.422
		c-0.574-0.42-2.586-0.641-6.036-0.641c-3.449,0-5.462,0.221-6.06,0.641c-0.573,0.419-0.861,1.9-0.861,4.421
		c0,2.521,0.288,4.003,0.884,4.423C88.176,20.344,90.188,20.563,93.638,20.563z M91.802,18.264v-5.527l4.601,2.764L91.802,18.264z"
		/>
</g>
</svg>
